<?xml version="1.0" standalone="no"?><!DOCTYPE svg PUBLIC "-//W3C//DTD SVG 1.1//EN" "http://www.w3.org/Graphics/SVG/1.1/DTD/svg11.dtd"><svg t="1694661399121" class="icon" viewBox="0 0 1024 1024" version="1.1" xmlns="http://www.w3.org/2000/svg" p-id="15852" xmlns:xlink="http://www.w3.org/1999/xlink" width="200" height="200"><path d="M624 552h176c17.674 0 32 14.328 32 32v176c0 17.672-14.326 32-32 32h-176c-17.674 0-32-14.328-32-32v-176c0-17.672 14.326-32 32-32z" fill="#4988FD" p-id="15853"></path><path d="M312 352m-120 0a120 120 0 1 0 240 0 120 120 0 1 0-240 0Z" fill="#4988FD" p-id="15854"></path><path d="M802 382H562c-16.568 0-30-13.432-30-30s13.432-30 30-30h240c16.568 0 30 13.432 30 30s-13.432 30-30 30z" fill="#DFECFD" p-id="15855"></path><path d="M802 382a29.892 29.892 0 0 1-21.212-8.788l-73.54-73.54c-11.716-11.716-11.716-30.71 0-42.426 11.714-11.716 30.71-11.716 42.426 0l73.54 73.54c11.716 11.716 11.716 30.71 0 42.426A29.9 29.9 0 0 1 802 382z" fill="#DFECFD" p-id="15856"></path><path d="M728.46 455.54a29.892 29.892 0 0 1-21.212-8.788c-11.716-11.716-11.716-30.71 0-42.426l73.54-73.54c11.714-11.716 30.71-11.716 42.426 0 11.716 11.716 11.716 30.71 0 42.426l-73.54 73.54a29.9 29.9 0 0 1-21.214 8.788z" fill="#DFECFD" p-id="15857"></path><path d="M462 702H222c-16.568 0-30-13.432-30-30s13.432-30 30-30h240c16.568 0 30 13.432 30 30s-13.432 30-30 30z" fill="#DFECFD" p-id="15858"></path><path d="M222 702a29.9 29.9 0 0 1-21.212-8.788c-11.716-11.714-11.716-30.71 0-42.426l73.54-73.54c11.714-11.714 30.71-11.714 42.426 0 11.716 11.714 11.716 30.71 0 42.426l-73.54 73.54A29.908 29.908 0 0 1 222 702z" fill="#DFECFD" p-id="15859"></path><path d="M295.54 775.54a29.9 29.9 0 0 1-21.212-8.788l-73.54-73.54c-11.716-11.714-11.716-30.71 0-42.426 11.714-11.714 30.71-11.714 42.426 0l73.54 73.54c11.716 11.714 11.716 30.71 0 42.426a29.916 29.916 0 0 1-21.214 8.788z" fill="#DFECFD" p-id="15860"></path></svg>