<?xml version="1.0" standalone="no"?><!DOCTYPE svg PUBLIC "-//W3C//DTD SVG 1.1//EN" "http://www.w3.org/Graphics/SVG/1.1/DTD/svg11.dtd"><svg t="1694661357725" class="icon" viewBox="0 0 1024 1024" version="1.1" xmlns="http://www.w3.org/2000/svg" p-id="15363" xmlns:xlink="http://www.w3.org/1999/xlink" width="200" height="200"><path d="M512 76c81.962 0 159.356 8.299 218.512 23.296 32.119 8.143 59.03 18.242 80.186 30.922 13.985 8.383 25.927 18.117 35.559 30.05 13.43 16.638 21.553 36.72 21.743 58.947V616a8 8 0 0 1-8 8h-56a8 8 0 0 1-8-8V317.736c-18.475 9.049-40.392 16.605-65.488 22.968C671.356 355.7 593.962 364 512 364c-81.962 0-159.356-8.299-218.512-23.296a478.712 478.712 0 0 1-14.108-3.801l-2.737-0.793c-18.6-5.457-35.19-11.697-49.643-18.867V804l0.038 1.19C229.55 844.407 355.946 876 511.5 876c13.563 0 24.405 0.014 32.526 0.04a8 8 0 0 1 7.975 8.004v55.032a8 8 0 0 1-7.378 7.971c-8.15 0.635-19.024 0.953-32.623 0.953-81.962 0-159.356-8.299-218.512-23.296-32.119-8.143-59.03-18.242-80.186-30.922-13.985-8.383-25.927-18.117-35.559-30.05C164.155 846.898 156 826.54 156 804c0-2.699 0.117-5.366 0.346-8H156V219.215c0.19-22.227 8.313-42.309 21.743-58.947 9.632-11.933 21.574-21.667 35.56-30.05 21.154-12.68 48.066-22.779 80.185-30.922C352.644 84.3 430.038 76 512 76z m0 72c-156.849 0-284 32.235-284 72s127.151 72 284 72 284-32.235 284-72-127.151-72-284-72z" fill="#1C6EFF" p-id="15364"></path><path d="M670.254 746.332h182.31v21.857a4 4 0 0 0 6.642 3.003l47.302-41.624c4.828-4.315 4.828-11.95 0-16.1l-47.302-41.623a4 4 0 0 0-6.642 3.003v21.857h-182.31c-42.123 0-76.254 34.025-76.254 76.017v20.564a4 4 0 0 0 4 4h41.948a4 4 0 0 0 4-4v-20.73c0-14.44 11.821-26.224 26.306-26.224z m193.798 68.382v24.73c0 14.44-11.821 26.224-26.306 26.224h-182.31v-21.875a4 4 0 0 0-6.638-3.007l-47.472 41.646c-4.829 4.315-4.829 11.95 0 16.1l47.472 41.645a4 4 0 0 0 6.638-3.007v-21.875h182.31c42.123 0 76.254-34.025 76.254-76.017v-20.73a4 4 0 0 0-4-4h-45.782a0.166 0.166 0 0 0-0.166 0.166z" fill="#44D7B6" p-id="15365"></path></svg>