<?xml version="1.0" standalone="no"?><!DOCTYPE svg PUBLIC "-//W3C//DTD SVG 1.1//EN" "http://www.w3.org/Graphics/SVG/1.1/DTD/svg11.dtd"><svg t="1694653515847" class="icon" viewBox="0 0 1024 1024" version="1.1" xmlns="http://www.w3.org/2000/svg" p-id="2372" xmlns:xlink="http://www.w3.org/1999/xlink" width="200" height="200"><path d="M772.5 231.8c11.2 0 20.3 9.1 20.3 20.3v521.2c0 9.8-8 17.8-17.8 17.8H249.3c-8.9 0-16.1-7.2-16.1-16.1V249c0-9.5 7.7-17.1 17.1-17.1h522.2m0-40.1H250.3c-31.6 0-57.1 25.6-57.1 57.1v526c0 31 25.1 56.1 56.1 56.1h525.8c31.9 0 57.8-25.9 57.8-57.8V252.1c-0.1-33.3-27.1-60.3-60.4-60.3z" fill="#206BFF" p-id="2373"></path><path d="M192.2 103.9c13.3 0 24.1 10.8 24.1 24.1v64c0 13.3-10.8 24.1-24.1 24.1h-64.1c-13.3 0-24.1-10.8-24.1-24.1v-64c0-13.3 10.8-24.1 24.1-24.1h64.1m0-40h-64.1c-35.4 0-64.1 28.6-64.1 64v64c0 35.4 28.7 64.1 64.1 64.1h64.1c35.4 0 64.1-28.7 64.1-64.1v-64c-0.1-35.4-28.8-64-64.1-64z" fill="#206BFF" p-id="2374"></path><path d="M512.1 360c13.3 0 24.1 10.8 24.1 24.1V448c0 22.1 17.9 40 40 40H640c13.3 0 24.1 10.8 24.1 24.1v127.8c0 13.3-10.8 24.1-24.1 24.1H512c-13.3 0-24.1-10.8-24.1-24.1V576c0-22.1-17.9-40-40-40H384c-13.3 0-24.1-10.8-24.1-24.1V384c0-13.3 10.8-24.1 24.1-24.1h128.1m0-39.9H384c-35.4 0-64.1 28.7-64.1 64.1v127.8c0 35.4 28.7 64.1 64.1 64.1h63.9v63.9c0 35.4 28.7 64.1 64.1 64.1h128c35.4 0 64.1-28.7 64.1-64.1V512c0-35.4-28.7-64.1-64.1-64.1h-63.9V384c0-35.4-28.7-64-64-64z" fill="#FF4D51" p-id="2375"></path><path d="M896.3 103.9c13.3 0 24.1 10.8 24.1 24.1v63.9c0 13.3-10.8 24.1-24.1 24.1h-64.1c-13.3 0-24.1-10.8-24.1-24.1V128c0-13.3 10.8-24.1 24.1-24.1h64.1m0-40h-64.1c-35.4 0-64.1 28.7-64.1 64.1v63.9c0 35.4 28.7 64.1 64.1 64.1h64.1c35.4 0 64.1-28.7 64.1-64.1V128c-0.1-35.5-28.7-64.1-64.1-64.1zM192.2 808c13.3 0 24.1 10.8 24.1 24.1v64c0 13.3-10.8 24.1-24.1 24.1h-64.1c-13.3 0-24.1-10.8-24.1-24.1v-64c0-13.3 10.8-24.1 24.1-24.1h64.1m0-40h-64.1C92.7 768 64 796.7 64 832.1v64c0 35.4 28.7 64.1 64.1 64.1h64.1c35.4 0 64.1-28.7 64.1-64.1v-64c-0.1-35.4-28.8-64.1-64.1-64.1zM896.3 808c13.3 0 24.1 10.8 24.1 24.1V896c0 13.3-10.8 24.1-24.1 24.1h-64.1c-13.3 0-24.1-10.8-24.1-24.1v-63.9c0-13.3 10.8-24.1 24.1-24.1h64.1m0-40h-64.1c-35.4 0-64.1 28.7-64.1 64.1V896c0 35.4 28.7 64.1 64.1 64.1h64.1c35.4 0 64.1-28.7 64.1-64.1v-63.9c-0.1-35.4-28.7-64.1-64.1-64.1z" fill="#206BFF" p-id="2376"></path></svg>