<?xml version="1.0" encoding="utf-8"?>
<!-- Svg Vector Icons : http://www.onlinewebfonts.com/icon -->
<!DOCTYPE svg PUBLIC "-//W3C//DTD SVG 1.1//EN" "http://www.w3.org/Graphics/SVG/1.1/DTD/svg11.dtd">
<svg version="1.1" xmlns="http://www.w3.org/2000/svg" xmlns:xlink="http://www.w3.org/1999/xlink" x="0px" y="0px" viewBox="0 0 256 256" enable-background="new 0 0 256 256" xml:space="preserve">
<metadata> Svg Vector Icons : http://www.onlinewebfonts.com/icon </metadata>
<g><g><path fill="#000000" d="M131.2,244.9c-0.9,0.7-2.1,1.1-3.2,1.1c-1.1,0-2.3-0.4-3.2-1.1c-3.5-2.7-85.3-78.5-85.3-146.4C39.5,49.7,79.2,10,128,10c48.8,0,88.5,39.7,88.5,88.5C216.5,166.4,134.7,242.1,131.2,244.9z M128,57.2c-22.8,0-41.3,18.5-41.3,41.3c0,22.8,18.5,41.3,41.3,41.3c22.8,0,41.3-18.5,41.3-41.3C169.3,75.7,150.8,57.2,128,57.2z"/></g></g>
</svg>