<?xml version="1.0" standalone="no"?><!DOCTYPE svg PUBLIC "-//W3C//DTD SVG 1.1//EN" "http://www.w3.org/Graphics/SVG/1.1/DTD/svg11.dtd"><svg t="1694654330920" class="icon" viewBox="0 0 1024 1024" version="1.1" xmlns="http://www.w3.org/2000/svg" p-id="5604" xmlns:xlink="http://www.w3.org/1999/xlink" width="200" height="200"><path d="M928.33 467.16H893.1c-3.2-22.42-6.4-44.84-12.81-64.05C835.45 255.8 707.36 153.32 560.04 137.3V95.67c0-19.22-22.42-32.03-48.04-32.03s-48.04 12.81-48.04 32.03v38.43c-9.61 0-19.22 3.2-28.82 3.2-163.33 32.03-285.03 166.54-304.24 326.66H95.67c-19.22 0-32.03 22.42-32.03 48.04s12.81 48.04 32.03 48.04h35.23c22.42 176.14 160.13 313.85 333.06 333.06v35.23c0 19.21 22.42 32.02 48.04 32.02s48.04-12.81 48.04-32.02V893.1c35.23-3.2 70.46-12.81 102.48-28.82 131.3-54.45 214.57-172.94 230.58-307.44h35.23c19.21 0 32.02-22.42 32.02-48.04 0-22.42-16.01-41.64-32.02-41.64z m-128.1 134.51c-44.84 147.32-195.36 236.99-349.08 208.16-153.72-32.02-256.2-172.93-240.19-326.66C226.97 329.46 355.08 210.96 512 210.96c41.63 0 80.06 6.41 118.49 22.42 144.12 60.85 217.78 217.77 169.74 368.29zM512 319.85c-105.68 0-192.15 86.47-192.15 192.15S406.32 704.15 512 704.15 704.15 617.68 704.15 512 617.68 319.85 512 319.85z" fill="#5FB2F7" p-id="5605"></path></svg>