<?xml version="1.0" encoding="utf-8"?>
<!-- Svg Vector Icons : http://www.onlinewebfonts.com/icon -->
<!DOCTYPE svg PUBLIC "-//W3C//DTD SVG 1.1//EN" "http://www.w3.org/Graphics/SVG/1.1/DTD/svg11.dtd">
<svg version="1.1" xmlns="http://www.w3.org/2000/svg" xmlns:xlink="http://www.w3.org/1999/xlink" x="0px" y="0px" viewBox="0 0 256 256" enable-background="new 0 0 256 256" xml:space="preserve">
<metadata> Svg Vector Icons : http://www.onlinewebfonts.com/icon </metadata>
<g><g><g><path fill="#000000" d="M29.4,128H10C10,62.9,62.9,10,128,10v19.4C73.6,29.4,29.4,73.6,29.4,128z M218.2,51.9l21.1-21l-13.7-13.8l-91.4,90.9c-2-0.6-4.1-1.1-6.3-1.1c-11.6,0-21,9.4-21,21s9.4,21,21,21s21-9.4,21-21c0-2.2-0.4-4.2-1-6.2l22.9-22.8c5.8,8.5,8.9,18.5,8.9,29c0,28.5-23.2,51.7-51.7,51.7c-14.8,0-28.8-6.3-38.6-17.4l9.5-9.5l-40.4-9.5l9.5,40.4l7.7-7.7c13.5,14.7,32.4,23,52.3,23c39.2,0,71.1-31.9,71.1-71.1c0-15.7-5.1-30.5-14.4-42.8l19.6-19.5c14.4,17.5,22.2,39.3,22.2,62.3c0,54.4-44.2,98.6-98.6,98.6c-27.2,0-53.1-11.4-71.7-31.1l8.7-8.7l-40.4-9.6l9.5,40.4l8.5-8.5c22.3,23.4,53,36.8,85.4,36.8c65.1,0,118-52.9,118-118C246,99.8,236.2,73.2,218.2,51.9z M76.3,128c0-28.5,23.2-51.7,51.7-51.7V56.9c-39.2,0-71.1,31.9-71.1,71.1H76.3z"/></g><g></g><g></g><g></g><g></g><g></g><g></g><g></g><g></g><g></g><g></g><g></g><g></g><g></g><g></g><g></g></g></g>
</svg>