<?xml version="1.0" standalone="no"?><!DOCTYPE svg PUBLIC "-//W3C//DTD SVG 1.1//EN" "http://www.w3.org/Graphics/SVG/1.1/DTD/svg11.dtd"><svg t="1694654335573" class="icon" viewBox="0 0 1024 1024" version="1.1" xmlns="http://www.w3.org/2000/svg" p-id="5763" xmlns:xlink="http://www.w3.org/1999/xlink" width="200" height="200"><path d="M341.51 457.67l4.04 4.03v54.29l-4.04 4.03h-53.77c-27.73 0-53.66 10.82-73.21 30.56-19.54 19.82-30.29 46.05-30.29 73.99s10.75 54.17 30.28 73.98c17.44 17.54 39.89 28.06 64.08 30.17l5.12 0.19v-50.05l6.89-2.84 80.65 81.43v5.68l-80.65 81.44-6.89-2.84v-50.42l-5.35-0.11c-80.74-4.56-146.01-67.62-154.92-147.93l-0.78-9.34-0.26-9.48 0.26-9.35c4.71-84.97 72.17-152.46 155.73-157.18l9.35-0.27 53.76 0.02z m241.96 225.22H475.94c-42.3 0-76.62 34.65-76.62 77.41 0 40.37 30.61 73.53 69.65 77.09l6.97 0.31h107.54c42.31 0 76.63-34.65 76.63-77.4 0-40.38-30.61-73.53-69.65-77.09l-6.99-0.32z m0 46.23c17.02 0 30.91 14.03 30.91 31.18 0 15.59-11.48 28.6-26.36 30.84l-4.55 0.34H475.94c-17.02 0-30.92-14.03-30.92-31.18 0-15.59 11.48-28.6 26.36-30.84l4.55-0.34h107.54z m188.19-542.91c88.16 0 160.22 69.68 165.08 157.54l0.26 9.48-0.26 9.35c-4.7 84.97-72.17 152.47-155.73 157.18l-5.32 0.14v50.38l-6.9 2.84-80.65-81.44v-5.67l80.65-81.44 6.9 2.84v50.03l5.11-0.17c18.14-1.59 35.31-7.91 50.11-18.36l7.2-5.57 6.77-6.24c19.54-19.82 30.29-46.05 30.29-73.99 0-28.02-10.72-54.22-30.28-73.98-17.44-17.53-39.89-28.05-64.08-30.17l-9.14-0.4H717.9l-4.03-4.04v-54.29l4.03-4.03h53.76zM583.47 411.44H475.94c-42.3 0-76.62 34.65-76.62 77.4 0 40.38 30.61 73.53 69.65 77.09l6.97 0.32h107.54c42.3 0 76.62-34.65 76.62-77.41 0-40.38-30.61-73.53-69.65-77.09l-6.98-0.31z m0 46.23c17.02 0 30.91 14.03 30.91 31.18 0 15.59-11.48 28.6-26.36 30.84l-4.55 0.34H475.94c-17.02 0-30.92-14.03-30.92-31.18 0-15.59 11.48-28.6 26.36-30.84l4.55-0.34h107.54z m0-317.68H475.94c-42.3 0-76.62 34.65-76.62 77.4 0 40.38 30.61 73.53 69.65 77.09l6.97 0.32h107.54c42.3 0 76.62-34.65 76.62-77.41 0-40.37-30.61-73.53-69.65-77.09l-6.98-0.31z m0 46.22c17.02 0 30.91 14.03 30.91 31.18 0 15.59-11.48 28.6-26.36 30.84l-4.55 0.34H475.94c-17.02 0-30.92-14.03-30.92-31.18 0-15.59 11.48-28.6 26.36-30.84l4.55-0.34h107.54z m0 0" p-id="5764" fill="#1296db"></path></svg>